<svg xmlns="http://www.w3.org/2000/svg" width="1006.243" height="424.122" viewBox="0 0 1006.243 424.122">
  <path id="Path_14310" data-name="Path 14310" d="M1267.154,469.285q-126.321-39.821-252.812-79.348c-7.079-2.191-14.075-4.382-21.143-6.573-.917-.305-1.833-.611-2.686-.853-4.921-1.517-10.409-.969-15.655-1.464-9.556-.906-19.6-.179-28.433-3.108-1.864-.6-3.719-1.222-5.583-1.833,17.824-6.921,35.65-13.8,53.453-20.764,53.127-20.764,100.449-50.682,141.292-90.619a395.7,395.7,0,0,0,84.141-119.632,26.083,26.083,0,0,0,.948-3.266c-2.044.737-3.5,1.233-4.941,1.78-38.863,14.959-92.231,35.47-153.975,59.173-54.486,20.911-115.482,44.33-178.827,68.634q-23.323,8.959-46.974,18.025-13.383,5.136-26.81,10.292-12.674,4.851-25.367,9.734-9.023,3.461-18.036,6.921l-2.781,1.043Q742.8,310.775,722.637,304.2c-2.718-.885-5.446-1.791-8.143-2.665-13.643-4.456-21.185-10.419-21.681-22.481a17.5,17.5,0,0,0-5.383-11.757,28.278,28.278,0,0,0-8.5-5.773,219.47,219.47,0,0,0-27.464-10.472c-1.96-.611-3.93-1.158-5.9-1.727-13.326-3.866-26.812-7.164-40.075-11.251q-24.461-7.506-49-15.085-23.023-7.079-46.025-14.169c-8.86-2.739-17.72-5.446-26.58-8.2v-.053c-.979-.242-1.9-.548-2.854-.853-1.591-.421-3.1-.917-4.689-1.464-.989-.242-1.948-.548-2.928-.853-1.517-.484-3.108-.969-4.7-1.39v-.063c-.663-.19-1.264-.369-1.938-.559-.306-.116-.611-.179-.917-.3-.663-.189-1.274-.432-1.949-.611-1.4-.432-2.8-.853-4.193-1.285-.99-.295-1.9-.6-2.855-.917h-.073c-1.328-.421-2.676-.842-4.014-1.211-.98-.306-1.9-.611-2.866-.917q-46.584-14.332-93.348-28.738c-19-5.784-38.188-10.777-57.246-16.192-.179.6-.369,1.212-.548,1.822q75.266,25.947,150.467,51.757c2.371.79,4.688,1.644,7.079,2.444h.053c3.107,1.032,6.141,2.128,9.26,3.224.779.242,1.507.484,2.3.79H468c1.7.611,3.35,1.159,5.046,1.76h.074c2.5.916,4.994,1.769,7.469,2.622q22.044,7.617,44.035,15.255,4.345,1.5,8.713,3.012c12.5,4.341,24.988,8.828,37.482,13.274q40.153,14.3,80.148,29.044c4.214,1.528,9.26,5.426,10.482,8.828a16.687,16.687,0,0,1,.937,8.691c-1.263,7.2-7.911,12.041-16.834,12.041a28.623,28.623,0,0,1-8.512-1.359c-12.02-3.729-24-7.522-36-11.262q-61.786-19.215-123.551-38.61c-6.089-1.886-12.231-3.835-18.33-5.731-1.517-.484-3.161-.969-4.688-1.517-56.866-17.9-113.565-36.05-170.378-54.012a60.409,60.409,0,0,0,13.936,7.554Q357.7,216.669,417.51,238.375q21.934,7.87,43.909,15.781c6.447,2.307,12.8,4.614,19.247,6.868q63.682,22.849,127.322,45.615c14.917,5.362,29.834,10.9,45,15.644a34.611,34.611,0,0,0,10.345,1.7,23.74,23.74,0,0,0,11.683-3.044,24.665,24.665,0,0,0,6.711-5.289,17.425,17.425,0,0,1,13.8-6.321,36.5,36.5,0,0,1,11.535,2.244Q726,317.922,744.9,324.222l-22.44,8.448L351.942,472.129s-21.618,44.362,24.03,73.658c2.939,1.9,7.332,2.781,12.926,2.781,81.3,0,421.671-185.768,421.671-185.768a24.649,24.649,0,0,0,4.34-2.823c7.606,19.563,14.675,37.724,21.933,56.371,1.507-.505,2.381-.769,3.234-1.1q40.991-15.913,81.929-31.825c6.521,2.2,13.052,4.361,19.552,6.573,6.036,2.065,11.44,5.667,16.866,9.313,3.045,2.128,6.1,4.266,9.2,6.215,2.675,1.58,5.172,3.656,7.859,5.236a19,19,0,0,0,3.824,1.886q138.046,48.78,276.336,97.13a30.684,30.684,0,0,0,9.923,2.1c5.426,0,9.04-2.75,12.3-8.681a43.352,43.352,0,0,0,4.519-11.683c2.971-12.916-.2-17.54-15.233-22.228m-1.517,22.344a2.012,2.012,0,0,1-.368.664c-1.264,1.517-5.583,3.023-8.576,3.023a5.7,5.7,0,0,1-1.664-.211c-3.519-1.222-5.837-5.91-8.639-9.08.422-1.1.854-2.128,1.275-3.224.853-.126,1.707-.306,2.57-.484.832-.243,1.749-.432,2.6-.675.769-.179,1.538-.348,2.287-.484a14.846,14.846,0,0,1,2.633-.284,5.624,5.624,0,0,1,2.571.527,2.184,2.184,0,0,1,.368.232,7.211,7.211,0,0,1,1.644,1.285,14.009,14.009,0,0,1,2.866,5.183,7.466,7.466,0,0,1,.432,3.529" transform="matrix(1, -0.017, 0.017, 1, -286.531, -119.405)" fill="#fff" opacity="0.14"/>
</svg>
